<svg xmlns="http://www.w3.org/2000/svg" viewBox="0 0 64 64" role="img" aria-label="OXC for TSRX logo candidate braces-bolt">
  <defs><linearGradient id="g" x1="0" y1="0" x2="1" y2="1">
  <stop offset="0" stop-color="#a855f7"/>
  <stop offset="0.55" stop-color="#7c3aed"/>
  <stop offset="1" stop-color="#5b21b6"/>
</linearGradient></defs>
  <rect width="64" height="64" rx="15" fill="#241245"/>
  <path fill="none" stroke="#fff" stroke-width="3.7800000000000002" stroke-linecap="round" stroke-linejoin="round"
     d="M19.4 18.5 c-4.05 0 -5.4 2.25 -5.4 5.4 v4.5 c0 2.52 -1.62 3.6 -3.6 3.6 c1.9800000000000002 0 3.6 1.08 3.6 3.6 v4.5 c0 3.15 1.35 5.4 5.4 5.4"/>
  <path fill="none" stroke="#fff" stroke-width="3.7800000000000002" stroke-linecap="round" stroke-linejoin="round"
     d="M44.6 18.5 c4.05 0 5.4 2.25 5.4 5.4 v4.5 c0 2.52 1.62 3.6 3.6 3.6 c-1.9800000000000002 0 -3.6 1.08 -3.6 3.6 v4.5 c0 3.15 -1.35 5.4 -5.4 5.4"/>
  <path fill="url(#g)" stroke="#c4b5fd" stroke-width="1" stroke-linejoin="round" d="M35.5 14 25 34.5 h6.5 L28.5 50 39 29.5 h-6.5 L35.5 14 Z"/>
</svg>
